<svg width="72" height="72" viewBox="0 0 72 72" fill="none" xmlns="http://www.w3.org/2000/svg">
<circle cx="36" cy="36" r="34" stroke="#F14635" stroke-width="4"/>
<path d="M16.75 23.3752C16.75 22.4087 17.5335 21.6252 18.5 21.6252H41.25C42.2165 21.6252 43 22.4087 43 23.3752V37.3752C43 38.3417 42.2165 39.1252 41.25 39.1252H18.5C17.5335 39.1252 16.75 38.3417 16.75 37.3752V23.3752Z" stroke="#F14635" stroke-width="3.5"/>
<path fill-rule="evenodd" clip-rule="evenodd" d="M18.5 25.1255H44.75V28.6255H18.5V25.1255Z" fill="#F14635"/>
<path d="M29 35.625C29 34.6585 29.7835 33.875 30.75 33.875H53.5C54.4665 33.875 55.25 34.6585 55.25 35.625V49.625C55.25 50.5915 54.4665 51.375 53.5 51.375H30.75C29.7835 51.375 29 50.5915 29 49.625V35.625Z" stroke="#F14635" stroke-width="3.5"/>
<rect x="39.5" y="35.6255" width="7" height="1.75" fill="white"/>
<path fill-rule="evenodd" clip-rule="evenodd" d="M30.75 37.375H57V40.875H30.75V37.375Z" fill="#F14635"/>
</svg>
