<svg width="72" height="72" viewBox="0 0 72 72" fill="none" xmlns="http://www.w3.org/2000/svg">
<path fill-rule="evenodd" clip-rule="evenodd" d="M0 36C0 55.8823 16.1177 72 36 72C55.8823 72 72 55.8823 72 36C72 16.1177 55.8823 0 36 0C16.1177 0 0 16.1177 0 36ZM68.4 35.9999C68.4 53.8939 53.894 68.3999 36 68.3999C18.106 68.3999 3.59999 53.8939 3.59999 35.9999C3.59999 18.1058 18.106 3.59987 36 3.59987C53.894 3.59987 68.4 18.1058 68.4 35.9999Z" fill="#F14635"/>
<path fill-rule="evenodd" clip-rule="evenodd" d="M42.1031 39.2141C42.2243 38.1716 42.2906 37.0965 42.2906 35.998C42.2906 34.9909 42.2348 34.0035 42.1322 33.0429C40.2163 33.3598 38.1362 33.5507 35.963 33.5507C33.8164 33.5507 31.7607 33.3645 29.8643 33.0545C29.7625 34.0115 29.7072 34.995 29.7072 35.998C29.7072 37.0925 29.773 38.1637 29.8933 39.2026C31.7817 38.8954 33.8273 38.7111 35.963 38.7111C38.1253 38.7111 40.1952 38.9 42.1031 39.2141ZM41.3649 43.1465C39.6926 42.8758 37.8704 42.7111 35.963 42.7111C34.0817 42.7111 32.2834 42.8713 30.63 43.1354C31.1481 45.1237 31.8431 46.9133 32.6065 48.4187C33.4082 49.9994 34.2547 51.206 34.9942 51.9842C35.3444 52.3528 35.6368 52.5894 35.8535 52.7266C35.9025 52.727 35.9516 52.7273 36.0007 52.7273C36.0486 52.7273 36.0964 52.7271 36.1442 52.7267C36.3609 52.5895 36.6533 52.3528 37.0036 51.9842C37.7431 51.206 38.5895 49.9994 39.3912 48.4187C40.1532 46.9161 40.8471 45.1303 41.3649 43.1465ZM42.2568 51.5182C42.4973 51.1061 42.7318 50.6752 42.9586 50.2279C43.8606 48.4494 44.6717 46.3523 45.2677 44.0311C45.7319 44.1694 46.1726 44.3141 46.5873 44.4629C47.9045 44.9356 48.8963 45.4272 49.5274 45.8436C47.6957 48.3558 45.1813 50.3383 42.2568 51.5182ZM36.9758 56.7047C36.6527 56.7197 36.3276 56.7273 36.0007 56.7273H35.9989C35.6712 56.7272 35.3452 56.7196 35.0212 56.7045C24.0275 56.1931 15.2715 47.1181 15.2715 35.998C15.2715 24.8779 24.0276 15.8029 35.0212 15.2915C35.3452 15.2765 35.6711 15.2688 35.9989 15.2688L36.0007 15.2688C36.3276 15.2688 36.6527 15.2764 36.9758 15.2913C47.9715 15.8005 56.7299 24.8764 56.7299 35.998C56.7299 47.1196 47.9715 56.1956 36.9758 56.7047ZM35.8535 19.2694C35.9025 19.269 35.9516 19.2688 36.0007 19.2688C36.0486 19.2688 36.0964 19.269 36.1442 19.2694C36.3609 19.4066 36.6533 19.6432 37.0036 20.0119C37.7431 20.7901 38.5895 21.9967 39.3912 23.5774C40.1858 25.1441 40.9062 27.0187 41.4302 29.1046C39.74 29.3816 37.8953 29.5507 35.963 29.5507C34.057 29.5507 32.2361 29.3862 30.5647 29.1158C31.089 27.0254 31.8106 25.1469 32.6065 23.5774C33.4082 21.9967 34.2547 20.7901 34.9942 20.0119C35.3444 19.6432 35.6368 19.4066 35.8535 19.2694ZM29.7398 20.4798C26.7351 21.6932 24.1634 23.754 22.3209 26.366C22.3319 26.3735 22.343 26.381 22.3544 26.3887C22.9829 26.8112 23.9903 27.315 25.3387 27.7988C25.7547 27.9481 26.1969 28.0933 26.6627 28.2319C27.2642 25.8045 28.1026 23.6146 29.0391 21.7681C29.2656 21.3215 29.4997 20.8913 29.7398 20.4798ZM25.9371 32.1863C25.7885 33.4207 25.7072 34.6949 25.7072 35.998C25.7072 37.3917 25.8002 38.7522 25.9691 40.0664C25.2678 40.2641 24.6055 40.4763 23.9877 40.698C22.6342 41.1837 21.4426 41.7333 20.503 42.3095C19.709 40.3619 19.2715 38.2311 19.2715 35.998C19.2715 33.8461 19.6778 31.7891 20.4179 29.8995C21.3701 30.4949 22.5929 31.0633 23.9877 31.5638C24.5961 31.7821 25.2477 31.9912 25.9371 32.1863ZM21.8078 25.9378C21.8078 25.9378 21.8137 25.9442 21.8221 25.9567C21.8115 25.944 21.8078 25.9378 21.8078 25.9378ZM21.8078 46.324C21.8078 46.324 21.8115 46.3178 21.8221 46.305C21.8137 46.3175 21.8078 46.324 21.8078 46.324ZM22.4498 45.8102C23.0828 45.401 24.0566 44.923 25.3387 44.4629C25.7733 44.307 26.2363 44.1556 26.725 44.0113C27.3215 46.3404 28.1345 48.4443 29.0391 50.2279C29.2656 50.6745 29.4997 51.1047 29.7398 51.5163C26.8045 50.3309 24.2824 48.3368 22.4498 45.8102ZM45.3301 28.212C44.7289 25.7925 43.8925 23.6096 42.9586 21.7681C42.7318 21.3208 42.4973 20.89 42.2568 20.4778C45.2502 21.6856 47.8141 23.7342 49.6558 26.331C49.6291 26.3497 49.6011 26.3689 49.5717 26.3887C48.9431 26.8112 47.9357 27.315 46.5873 27.7988C46.1912 27.941 45.7714 28.0793 45.3301 28.212ZM46.0582 32.1666C46.2083 33.4071 46.2906 34.6879 46.2906 35.998C46.2906 37.3987 46.1966 38.7658 46.0262 40.086C46.7018 40.2781 47.3409 40.4836 47.9383 40.698C49.321 41.1941 50.5346 41.757 51.4832 42.3467C52.2868 40.389 52.7299 38.2453 52.7299 35.998C52.7299 33.8317 52.3182 31.7615 51.5686 29.8615C50.6079 30.4707 49.3628 31.0526 47.9383 31.5638C47.3503 31.7748 46.7221 31.9772 46.0582 32.1666ZM50.1182 25.9378C50.1182 25.9378 50.1145 25.944 50.1039 25.9567C50.1124 25.9442 50.1182 25.9378 50.1182 25.9378ZM50.1182 46.324C50.1182 46.324 50.1123 46.3175 50.1039 46.305C50.1146 46.3178 50.1182 46.324 50.1182 46.324Z" fill="#F14635"/>
</svg>
