<svg width="72" height="72" viewBox="0 0 72 72" fill="none" xmlns="http://www.w3.org/2000/svg">
<rect width="72" height="72" fill="white"/>
<circle cx="36" cy="36" r="34" stroke="#F14635" stroke-width="4"/>
<path d="M21.375 54.25C20.2704 54.25 19.375 55.1454 19.375 56.25C19.375 57.3546 20.2704 58.25 21.375 58.25L21.375 54.25ZM28.125 56.25L28.125 58.25C29.2296 58.25 30.125 57.3546 30.125 56.25L28.125 56.25ZM30.125 49.5C30.125 48.3954 29.2296 47.5 28.125 47.5C27.0204 47.5 26.125 48.3954 26.125 49.5L30.125 49.5ZM21.375 58.25L28.125 58.25L28.125 54.25L21.375 54.25L21.375 58.25ZM30.125 56.25L30.125 53.25L26.125 53.25L26.125 56.25L30.125 56.25ZM30.125 53.25L30.125 49.5L26.125 49.5L26.125 53.25L30.125 53.25Z" fill="#F14635"/>
<path d="M26.429 54.1286C22.909 52.2702 20.0061 49.4272 18.0748 45.9467C16.1434 42.4661 15.2671 38.4986 15.5529 34.5284C15.8386 30.5581 17.2741 26.757 19.6839 23.5889C22.0938 20.4208 25.3739 18.0228 29.1238 16.6876" stroke="#F14635" stroke-width="4" stroke-linecap="round"/>
<path d="M50.625 17.75C51.7296 17.75 52.625 16.8546 52.625 15.75C52.625 14.6454 51.7296 13.75 50.625 13.75L50.625 17.75ZM43.875 15.75L43.875 13.75C42.7704 13.75 41.875 14.6454 41.875 15.75L43.875 15.75ZM41.875 22.5C41.875 23.6046 42.7704 24.5 43.875 24.5C44.9796 24.5 45.875 23.6046 45.875 22.5L41.875 22.5ZM50.625 13.75L43.875 13.75L43.875 17.75L50.625 17.75L50.625 13.75ZM41.875 15.75L41.875 18.75L45.875 18.75L45.875 15.75L41.875 15.75ZM41.875 18.75L41.875 22.5L45.875 22.5L45.875 18.75L41.875 18.75Z" fill="#F14635"/>
<path d="M45.571 17.8714C49.091 19.7298 51.9939 22.5728 53.9252 26.0533C55.8566 29.5339 56.7329 33.5014 56.4471 37.4716C56.1614 41.4419 54.7259 45.243 52.3161 48.4111C49.9062 51.5792 46.6261 53.9772 42.8762 55.3124" stroke="#F14635" stroke-width="4" stroke-linecap="round"/>
<path d="M29.25 29.25H42.75M29.25 36H36M42.75 36H36M36 36V47.25" stroke="#F14635" stroke-width="4" stroke-linecap="round"/>
</svg>
