<svg width="72" height="72" viewBox="0 0 72 72" fill="none" xmlns="http://www.w3.org/2000/svg">
<circle cx="36" cy="36" r="34" stroke="#F14635" stroke-width="4"/>
<path d="M21.6794 30.4001C21.6794 31.3341 20.9231 32.0922 19.9874 32.0922C19.0517 32.0922 18.2953 31.3341 18.2953 30.4001C18.2953 27.0736 21.4594 23.632 26.7555 23.632H46.3592L42.4794 19.7522C41.8178 19.0923 41.8178 18.0196 42.4794 17.3597C43.141 16.6981 44.2103 16.6981 44.8719 17.3597L51.64 24.1278C52.3016 24.7877 52.3016 25.8604 51.64 26.5203L44.8719 33.2884C44.542 33.6184 44.1088 33.7842 43.6757 33.7842C43.2425 33.7842 42.8093 33.6184 42.4794 33.2884C41.8178 32.6285 41.8178 31.5558 42.4794 30.8959L46.3592 27.0161H26.7555C23.6201 27.0161 21.6794 28.7724 21.6794 30.4001Z" fill="#F14635"/>
<path d="M48.7517 40.5523C48.7517 39.6183 49.5081 38.8603 50.4437 38.8603C51.3794 38.8603 52.1358 39.6183 52.1358 40.5523C52.1358 43.8788 48.9717 47.3204 43.6757 47.3204H24.0719L27.9517 51.2002C28.6133 51.8601 28.6133 52.9328 27.9517 53.5927C27.2901 54.2543 26.2208 54.2543 25.5592 53.5927L18.7911 46.8246C18.1295 46.1647 18.1295 45.092 18.7911 44.4321L25.5592 37.664C25.8891 37.3341 26.3223 37.1683 26.7555 37.1683C27.1886 37.1683 27.6218 37.3341 27.9517 37.664C28.6133 38.3239 28.6133 39.3966 27.9517 40.0565L24.0719 43.9363H43.6757C46.811 43.9363 48.7517 42.18 48.7517 40.5523Z" fill="#F14635"/>
<path d="M21.6794 30.4001C21.6794 31.3341 20.9231 32.0922 19.9874 32.0922C19.0517 32.0922 18.2953 31.3341 18.2953 30.4001C18.2953 27.0736 21.4594 23.632 26.7555 23.632H46.3592L42.4794 19.7522C41.8178 19.0923 41.8178 18.0196 42.4794 17.3597C43.141 16.6981 44.2103 16.6981 44.8719 17.3597L51.64 24.1278C52.3016 24.7877 52.3016 25.8604 51.64 26.5203L44.8719 33.2884C44.542 33.6184 44.1088 33.7842 43.6757 33.7842C43.2425 33.7842 42.8093 33.6184 42.4794 33.2884C41.8178 32.6285 41.8178 31.5558 42.4794 30.8959L46.3592 27.0161H26.7555C23.6201 27.0161 21.6794 28.7724 21.6794 30.4001Z" stroke="#F14635" stroke-width="0.5"/>
<path d="M48.7517 40.5523C48.7517 39.6183 49.5081 38.8603 50.4437 38.8603C51.3794 38.8603 52.1358 39.6183 52.1358 40.5523C52.1358 43.8788 48.9717 47.3204 43.6757 47.3204H24.0719L27.9517 51.2002C28.6133 51.8601 28.6133 52.9328 27.9517 53.5927C27.2901 54.2543 26.2208 54.2543 25.5592 53.5927L18.7911 46.8246C18.1295 46.1647 18.1295 45.092 18.7911 44.4321L25.5592 37.664C25.8891 37.3341 26.3223 37.1683 26.7555 37.1683C27.1886 37.1683 27.6218 37.3341 27.9517 37.664C28.6133 38.3239 28.6133 39.3966 27.9517 40.0565L24.0719 43.9363H43.6757C46.811 43.9363 48.7517 42.18 48.7517 40.5523Z" stroke="#F14635" stroke-width="0.5"/>
</svg>
